<?xml version="1.0" encoding="UTF-8"?><svg id="Layer_2" xmlns="http://www.w3.org/2000/svg" viewBox="0 0 51.6 67.61"><g id="Layer_1-2"><g><path d="M36.28,45.04v.36s.1,15.66,.1,15.66c0,.76-.61,1.37-1.37,1.38l-28.28,.17c-.76,0-1.38-.6-1.39-1.36v-1.84s15.49-2.65,15.49-2.65l-.28-45.84L6.05,5.22c.1-.02,.21-.04,.32-.04l28.28-.17c.76,0,1.38,.61,1.39,1.37l.1,15.66,4.97-5.04-.07-10.65C41.02,2.82,38.13-.02,34.62,0L6.34,.17C2.82,.2-.02,3.07,0,6.59L.34,61.28c.02,3.51,2.9,6.35,6.42,6.33l28.28-.17c3.51-.02,6.36-2.9,6.34-6.41l-.07-10.65-2.52-2.49-2.52-2.85Z" style="fill:#f1f2f2;"/><path d="M43.31,25.17l-2.78-2.75c-.2-.19-.51-.19-.71,0l-7.74,7.84-3.1,3.14c-.19,.2-.19,.51,0,.71l3.14,3.1,7.84,7.74c.2,.19,.51,.19,.71,0l2.75-2.78c.19-.2,.19-.51,0-.71l-7.48-7.39c-.2-.19-.2-.51,0-.71l7.39-7.48c.19-.2,.19-.51,0-.71Z" style="fill:#f1f2f2;"/><rect x="41.08" y="31.68" width="10.51" height="3.87" rx=".22" ry=".22" transform="translate(-.21 .29) rotate(-.35)" style="fill:#f1f2f2;"/></g></g></svg>