<?xml version="1.0" encoding="UTF-8"?><svg id="Layer_2" xmlns="http://www.w3.org/2000/svg" viewBox="0 0 63.97 65.74"><g id="Layer_1-2"><g><path d="M55.59,0L7.98,.29C3.55,.32-.03,3.94,0,8.37L.3,57.76c.03,4.42,3.65,8,8.07,7.98l47.62-.29c4.42-.03,8-3.65,7.98-8.07l-.3-49.39C63.64,3.55,60.02-.03,55.59,0ZM3.3,57.74l-.3-49.39c-.02-2.77,2.22-5.04,4.99-5.06l9.47-.06,.37,59.44-9.47,.06c-2.77,.02-5.04-2.22-5.06-4.99Zm57.67-.36c.02,2.77-2.22,5.04-4.99,5.06l-35.15,.22-.37-59.44,35.15-.22c2.77-.02,5.04,2.22,5.06,4.99l.3,49.39Z" style="fill:#f1f2f2;"/><polygon points="42.58 18.66 32.73 28.63 28.52 32.89 32.78 37.09 42.75 46.94 46.96 42.69 36.98 32.84 46.83 22.86 42.58 18.66" style="fill:#f1f2f2;"/></g></g></svg>