<?xml version="1.0" encoding="UTF-8"?><svg id="Layer_2" xmlns="http://www.w3.org/2000/svg" xmlns:xlink="http://www.w3.org/1999/xlink" viewBox="0 0 854.93 467.7"><defs><linearGradient id="linear-gradient" x1="297.84" y1="324.22" x2="768.79" y2="394.18" gradientUnits="userSpaceOnUse"><stop offset="0" stop-color="#bf9d4f"/><stop offset=".65" stop-color="#8c7230"/><stop offset="1" stop-color="#766023"/></linearGradient><linearGradient id="linear-gradient-2" x1="318.81" y1="157.68" x2="866.76" y2="239.09" xlink:href="#linear-gradient"/><linearGradient id="linear-gradient-3" x1="1478.7" y1="864.47" x2="2221.31" y2="1004.61" gradientTransform="translate(-1207.61 -1010.14) rotate(10.24)" gradientUnits="userSpaceOnUse"><stop offset="0" stop-color="#bb994c"/><stop offset=".32" stop-color="#b8964a"/><stop offset=".52" stop-color="#af8f44"/><stop offset=".69" stop-color="#a0833b"/><stop offset=".84" stop-color="#8c722d"/><stop offset=".91" stop-color="#806826"/><stop offset="1" stop-color="#7a6424"/></linearGradient><linearGradient id="linear-gradient-4" x1="1481.29" y1="876.24" x2="2197.18" y2="1027.6" gradientTransform="translate(-1207.61 -1010.14) rotate(10.24)" gradientUnits="userSpaceOnUse"><stop offset="0" stop-color="#b7974a"/><stop offset=".13" stop-color="#b19144"/><stop offset=".64" stop-color="#a07e32"/><stop offset="1" stop-color="#9a782c"/></linearGradient></defs><g id="Layer_4"><polygon points="398.62 0 406.44 19.05 427.46 17.62 411.27 30.83 419.1 49.88 401.27 38.99 385.08 52.19 390.25 32.26 372.42 21.36 393.45 19.94 398.62 0" style="fill:#c4c8cf; stroke-width:0px;"/><polygon points="93.85 282.75 100.58 299.14 118.66 297.91 104.74 309.27 111.46 325.66 96.13 316.29 82.2 327.65 86.65 310.5 71.32 301.13 89.4 299.9 93.85 282.75" style="fill:#c4c8cf; stroke-width:0px;"/><polygon points="589.8 438.16 594.23 448.95 606.13 448.14 596.96 455.61 601.39 466.4 591.3 460.23 582.14 467.7 585.06 456.42 574.97 450.25 586.87 449.45 589.8 438.16" style="fill:#c4c8cf; stroke-width:0px;"/><path d="m644.38,124.57c0,29.79-22.35,54.36-51.19,57.86-12.46-30.65-35.05-56.1-63.6-72.19,6.38-25.26,29.26-43.95,56.51-43.95,32.19,0,58.29,26.09,58.29,58.29Z" style="fill:#798085; stroke-width:0px;"/><path d="m430.12,324.39c-42.08-14.56-84.04-30.34-123.96-46.52,14.23,65.58,72.58,114.71,142.42,114.71,35.71,0,68.41-12.85,93.75-34.16-33.28-8.43-70.13-19.47-112.21-34.03Z" style="fill:url(#linear-gradient); stroke-width:0px;"/><path d="m317.97,186.27c54.9,26.7,189.18,72.33,273.49,89.42,1.87-9.33,2.86-18.98,2.86-28.86,0-80.49-65.25-145.75-145.75-145.75-58.58,0-109.07,34.56-132.23,84.4.54.26,1.08.53,1.63.8Z" style="fill:url(#linear-gradient-2); stroke-width:0px;"/><path d="m674.89,337.5c-23.31-2.77-132.49-25.83-239.06-61.56-72.96-24.46-149.3-58.6-198.9-81.35-89.14-40.89-116.77-77.45-45.43-65.09,50.38,8.73,89.69,19.75,89.69,19.75,0,0-91.67-19.87-9.02,28.31,61.88,36.07,299.96,107.31,373.69,116.58,45.4,5.7-12.8-27.75-12.8-27.75,0,0,230.19,93.46,41.85,71.1Z" style="fill:url(#linear-gradient-3); stroke-width:0px;"/><path d="m27.68,101.88c45.4-6.82,216.64,32.09,216.64,32.09,0,0-202.6-39.94-72.9,35.74,51.8,30.23,159.8,79.79,269.21,114.06,149.23,46.74,262.65,71.71,308.34,69.05,70.26-4.08-85.21-75.48-85.21-75.48,0,0,358.6,131.77,93.51,113.5-80.97-5.58-190.44-26.25-325.58-74.26C186.41,229.45-89.14,119.42,27.68,101.88Z" style="fill:url(#linear-gradient-4); stroke-width:0px;"/></g></svg>