<?xml version="1.0" encoding="UTF-8"?><svg id="Layer_2" xmlns="http://www.w3.org/2000/svg" viewBox="0 0 67.34 61.92"><g id="Layer_1-2"><g><ellipse cx="33.72" cy="29.83" rx="4.26" ry="4.36" style="fill:#f1f2f2;"/><path d="M61.5,0H5.83C2.61,0,0,2.61,0,5.83V56.09c0,3.22,2.61,5.83,5.83,5.83H61.5c3.22,0,5.83-2.61,5.83-5.83V5.83c0-3.22-2.61-5.83-5.83-5.83ZM9.37,36.8c-1.05,0-1.89-.8-1.89-1.91s.84-1.87,1.89-1.87,1.89,.74,1.89,1.87-.84,1.91-1.89,1.91Zm10.47-2.61c1.36,0,2.51-.54,3.42-1.61l2.02,1.87c-1.28,1.58-3.25,2.43-5.62,2.43-4.22,0-7.37-2.94-7.37-7.04s3.15-7.04,7.39-7.04c2.35,0,4.32,.86,5.6,2.41l-2.02,1.87c-.91-1.05-2.06-1.6-3.42-1.6-2.55,0-4.36,1.79-4.36,4.36s1.81,4.36,4.36,4.36Zm13.87,2.68c-4.3,0-7.45-3-7.45-7.04s3.15-7.04,7.45-7.04,7.45,2.98,7.45,7.04-3.17,7.04-7.45,7.04Zm22.22-.23l-.02-8.17-4.01,6.73h-1.42l-3.99-6.56v8h-2.96v-13.62h2.61l5.1,8.46,5.02-8.46h2.59l.04,13.62h-2.96Z" style="fill:#f1f2f2;"/></g></g></svg>