<?xml version="1.0" encoding="UTF-8"?><svg id="Layer_2" xmlns="http://www.w3.org/2000/svg" viewBox="0 0 67.91 58.36"><g id="Layer_1-2"><path d="m62.54,3H5.38c-1.31,0-2.38,1.06-2.38,2.38v47.61c0,1.31,1.06,2.38,2.38,2.38l9.03-8.34,48.13-.02c1.31,0,2.38-1.06,2.38-2.38V5.38c0-1.31-1.06-2.38-2.38-2.38h0ZM9,43.84V9h49.91v32l-44.51.02h-2.35s-1.72,1.59-1.72,1.59l-1.33,1.23h0Z" style="fill:#f1f2f2; stroke-width:0px;"/><polygon points="37.07 12.02 28.88 12.02 30.32 29.3 35.64 29.3 37.07 12.02 37.07 12.02" style="fill:#f1f2f2; stroke-width:0px;"/><path d="m32.98,31.54c-1.73,0-3.12,1.4-3.12,3.12s1.4,3.12,3.12,3.12,3.12-1.4,3.12-3.12-1.4-3.12-3.12-3.12h0Z" style="fill:#f1f2f2; stroke-width:0px;"/></g></svg>