<?xml version="1.0" encoding="UTF-8"?><svg id="Layer_2" xmlns="http://www.w3.org/2000/svg" viewBox="0 0 62.59 62.95"><g id="Layer_1-2"><g><path d="M62.59,38.79v-14.63h-8.29c-.42-1.31-.95-2.58-1.58-3.8l5.99-5.99-10.31-10.31-5.98,5.98c-1.23-.64-2.51-1.17-3.83-1.59V0h-14.58V8.46c-1.32,.42-2.6,.95-3.83,1.59l-5.98-5.98L3.88,14.37l5.99,5.99c-.64,1.22-1.17,2.49-1.58,3.8H0v14.63H8.29c.42,1.31,.94,2.58,1.58,3.8l-5.99,5.99,10.31,10.31,5.99-5.98c1.23,.64,2.51,1.18,3.83,1.59v8.46h14.58v-8.46c1.32-.42,2.6-.95,3.83-1.59l5.98,5.98,10.31-10.31-5.99-5.98c.64-1.22,1.17-2.49,1.58-3.8h8.29Zm-12.37,9.79l-1.82,1.82-5.11-5.11-2.04,1.34c-1.93,1.27-4.04,2.15-6.27,2.61l-2.39,.49v7.21h-2.58v-7.21l-2.39-.49c-2.23-.46-4.34-1.34-6.27-2.61l-2.04-1.34-5.11,5.11-1.82-1.82,5.11-5.11-1.34-2.04c-1.27-1.92-2.14-4.02-2.6-6.24l-.5-2.39H6v-2.63h7.04l.5-2.39c.46-2.22,1.34-4.32,2.6-6.24l1.34-2.04-5.11-5.11,1.82-1.82,5.11,5.11,2.04-1.34c1.93-1.27,4.04-2.15,6.27-2.61l2.39-.49V6h2.58v7.22l2.39,.49c2.23,.46,4.33,1.34,6.27,2.61l2.04,1.34,5.11-5.11,1.82,1.82-5.11,5.11,1.34,2.04c1.27,1.92,2.14,4.02,2.6,6.24l.5,2.39h7.04v2.63h-7.04l-.5,2.39c-.46,2.22-1.34,4.32-2.6,6.24l-1.34,2.04,5.11,5.11Z" style="fill:#f1f2f2;"/><path d="M31.29,20.64c-5.98,0-10.84,4.86-10.84,10.84s4.86,10.84,10.84,10.84,10.84-4.86,10.84-10.84-4.86-10.84-10.84-10.84Zm0,16.62c-3.19,0-5.78-2.59-5.78-5.78s2.59-5.78,5.78-5.78,5.78,2.59,5.78,5.78-2.59,5.78-5.78,5.78Z" style="fill:#f1f2f2;"/></g></g></svg>